<svg xmlns="http://www.w3.org/2000/svg" width="15" height="15" viewBox="0 0 15 15"><defs><style>.a{fill:#fff;}</style></defs><path class="a" d="M181.494,126.949a7.5,7.5,0,1,0,1.5,4.5A7.527,7.527,0,0,0,181.494,126.949Zm-10.555,1.1a1.278,1.278,0,1,1,1.278,1.277A1.278,1.278,0,0,1,170.939,128.048Zm2.267,2.125v5.638a.317.317,0,0,1-.316.316h-1.345a.316.316,0,0,1-.316-.316v-5.638a.315.315,0,0,1,.316-.316h1.345A.316.316,0,0,1,173.206,130.173Zm7.028,5.663a.29.29,0,0,1-.29.291H178.5a.29.29,0,0,1-.29-.291v-2.644c0-.4.116-1.729-1.031-1.729-.89,0-1.07.913-1.106,1.323v3.05a.291.291,0,0,1-.291.291h-1.4a.291.291,0,0,1-.291-.291v-5.688a.291.291,0,0,1,.291-.291h1.4a.291.291,0,0,1,.291.291v.491a1.981,1.981,0,0,1,1.863-.877c2.311,0,2.3,2.159,2.3,3.346Z" transform="translate(-167.993 -123.948)"/></svg>