<svg xmlns="http://www.w3.org/2000/svg" width="15" height="15" viewBox="0 0 15 15"><defs><style>.a{fill:#005baa;}.b{fill:#fff;}</style></defs><circle class="a" cx="7.5" cy="7.5" r="7.5"/><g transform="translate(-167.993 -71.359)"><path class="b" d="M171.557,75.936a.666.666,0,0,0-.249.049l3.914,3.331a.38.38,0,0,0,.534,0l3.918-3.334a.668.668,0,0,0-.246-.046Zm-.667.576a.636.636,0,0,0-.007.1v4.5a.673.673,0,0,0,.674.674h7.871a.673.673,0,0,0,.674-.674v-4.5a.636.636,0,0,0-.007-.1l-3.9,3.317a1.1,1.1,0,0,1-1.412,0Z"/></g></svg>