<svg xmlns="http://www.w3.org/2000/svg" width="15" height="15" viewBox="0 0 15 15"><defs><style>.a{fill:#005baa;}.b{fill:#fff;fill-rule:evenodd;}</style></defs><circle class="a" cx="7.5" cy="7.5" r="7.5"/><g transform="translate(-320.706 -71.359)"><path class="b" d="M332.721,81.382a.514.514,0,0,1,.047.789L331.737,83.2c-1.032,1.032-4.187-.173-5.945-1.931s-2.962-4.912-1.93-5.945l1.031-1.031a.516.516,0,0,1,.789.047l1.24,1.588a.693.693,0,0,1-.055.892l-.679.678a.807.807,0,0,0-.119.938A6.9,6.9,0,0,0,328.626,81a.813.813,0,0,0,.937-.12l.679-.678a.693.693,0,0,1,.891-.056l1.588,1.24Z"/></g></svg>