<svg xmlns="http://www.w3.org/2000/svg" width="146.004" height="21.699" viewBox="0 0 146.004 21.699"><defs><style>.a,.b{fill:#fff;}.b{fill-rule:evenodd;}</style></defs><g transform="translate(-436.004 -120.599)"><path class="a" d="M458.78,122.6a22.908,22.908,0,0,1,3.846-.3,6.442,6.442,0,0,1,4.282,1.12,3.492,3.492,0,0,1,1.2,2.788,3.673,3.673,0,0,1-2.526,3.469v.058a3.5,3.5,0,0,1,1.937,2.688,30.821,30.821,0,0,0,1.1,3.87h-2.6a18.05,18.05,0,0,1-.936-3.276c-.4-1.81-1.056-2.4-2.5-2.43H461.3v5.706H458.78Zm2.517,6.128h1.5c1.72,0,2.78-.907,2.78-2.287,0-1.511-1.065-2.22-2.705-2.226a7.092,7.092,0,0,0-1.576.129Z"/><path class="a" d="M478.262,130.131H473.03V134.2h5.85v2.087h-8.388V122.407h8.082v2.086H473.03v3.569h5.232Z"/><path class="a" d="M481.1,136.291V122.407H484l3.587,5.958a39.064,39.064,0,0,1,2.362,4.654l.05-.013c-.179-1.844-.227-3.633-.227-5.755v-4.844h2.345v13.884h-2.628l-3.623-6.108a47.522,47.522,0,0,1-2.489-4.79l-.065.013c.1,1.8.134,3.637.134,5.918v4.967Z"/><path class="a" d="M497.806,132.366l-1.184,3.925H494l4.455-13.884h3.23l4.511,13.884h-2.723l-1.256-3.925Zm3.992-1.917-1.094-3.421c-.267-.86-.5-1.805-.706-2.61h-.045c-.2.814-.415,1.776-.66,2.6l-1.072,3.43Z"/><path class="a" d="M509.13,124.538h-3.964v-2.131h10.5v2.131h-4v11.753H509.13Z"/><path class="a" d="M519.808,122.407v13.884h-2.537V122.407Z"/></g><g transform="translate(-436.004 -120.599)"><path class="a" d="M534.14,135.678a10.983,10.983,0,0,1-4.043.751,6.713,6.713,0,0,1-4.913-1.817,7.26,7.26,0,0,1-1.91-5.217,6.816,6.816,0,0,1,7.245-7.128,8.118,8.118,0,0,1,3.234.619l-.319.813a6.72,6.72,0,0,0-2.966-.6c-3.831,0-6.175,2.482-6.175,6.241,0,3.919,2.3,6.252,5.964,6.252a6.625,6.625,0,0,0,2.9-.484v-4.887h-3.218v-.809h4.2Z"/><path class="a" d="M537.03,122.6a15.188,15.188,0,0,1,3-.3,4.982,4.982,0,0,1,3.733,1.169,3.485,3.485,0,0,1,.969,2.472,3.667,3.667,0,0,1-2.719,3.615v.042c1.117.36,1.817,1.411,2.147,2.951a17.95,17.95,0,0,0,1.035,3.744h-1.025a18.977,18.977,0,0,1-.886-3.379c-.427-2-1.282-2.91-3.11-2.987h-2.168v6.366h-.979Zm.979,6.535h2.2c2.142,0,3.533-1.2,3.533-3.028,0-2.132-1.566-3-3.739-3a8.726,8.726,0,0,0-2,.19Z"/><path class="a" d="M558.954,129.21c0,4.892-3,7.307-6.216,7.307-3.414,0-6.056-2.688-6.056-7.029,0-4.553,2.755-7.308,6.226-7.308C556.41,122.18,558.954,124.909,558.954,129.21Zm-11.252.247c0,3.126,1.817,6.241,5.1,6.241,3.3,0,5.135-2.992,5.135-6.427,0-2.925-1.6-6.272-5.094-6.272C549.334,123,547.7,126.212,547.7,129.457Z"/><path class="a" d="M562.385,122.407v8.379c0,3.527,1.653,4.9,3.7,4.9,2.286,0,3.883-1.483,3.883-4.9v-8.379h.978V130.7c0,4.259-2.291,5.819-4.918,5.819-2.42,0-4.619-1.416-4.619-5.67v-8.44Z"/><path class="a" d="M574.3,122.566a16.22,16.22,0,0,1,2.966-.268,5.155,5.155,0,0,1,3.672,1.175,3.651,3.651,0,0,1,1.067,2.719,3.913,3.913,0,0,1-.964,2.775,5.317,5.317,0,0,1-4.078,1.551,5.944,5.944,0,0,1-1.684-.165v5.938H574.3Zm.979,6.927a6.192,6.192,0,0,0,1.761.2c2.487,0,3.976-1.206,3.976-3.4s-1.582-3.168-3.786-3.168a10.165,10.165,0,0,0-1.951.165Z"/></g><g transform="translate(-436.004 -120.599)"><path class="a" d="M461.865,140.435a1.664,1.664,0,0,1-1.654,1.863,1.626,1.626,0,0,1-1.6-1.8,1.684,1.684,0,0,1,1.65-1.859A1.618,1.618,0,0,1,461.865,140.435Zm-2.769.056c0,.757.414,1.435,1.14,1.435s1.142-.667,1.142-1.471c0-.7-.37-1.44-1.136-1.44S459.1,139.717,459.1,140.491Z"/><path class="a" d="M464.6,141.545c0,.266.008.494.021.7h-.411l-.025-.415h-.013a.956.956,0,0,1-.846.473c-.4,0-.881-.223-.881-1.113V139.7h.462v1.4c0,.483.152.813.572.813a.679.679,0,0,0,.616-.424.71.71,0,0,0,.042-.237V139.7h.463Z"/><path class="a" d="M465.371,140.491c0-.3-.007-.555-.021-.791h.408l.017.5h.017a.774.774,0,0,1,.712-.556.517.517,0,0,1,.129.013v.434a.736.736,0,0,0-.158-.013.647.647,0,0,0-.622.591,1.117,1.117,0,0,0-.019.215v1.357h-.463Z"/><path class="a" d="M468.835,142.24l-1.168-3.54h.5l.553,1.746c.153.477.285.908.381,1.32h.013c.1-.409.246-.854.406-1.315l.6-1.751h.492l-1.274,3.54Z"/><path class="a" d="M472.228,142.24l-.041-.321h-.014a.955.955,0,0,1-.783.379.727.727,0,0,1-.781-.729c0-.615.549-.953,1.537-.946v-.054a.525.525,0,0,0-.582-.586,1.254,1.254,0,0,0-.667.19l-.105-.308a1.622,1.622,0,0,1,.844-.222c.782,0,.972.53.972,1.039v.95a3.9,3.9,0,0,0,.039.608Zm-.073-1.3c-.5-.01-1.079.079-1.079.571a.407.407,0,0,0,.434.442.639.639,0,0,0,.623-.426.474.474,0,0,0,.022-.145Z"/><path class="a" d="M473.36,138.511h.463v3.729h-.463Z"/><path class="a" d="M476.745,141.545c0,.266.008.494.021.7h-.411l-.025-.415h-.013a.956.956,0,0,1-.846.473c-.4,0-.881-.223-.881-1.113V139.7h.463v1.4c0,.483.151.813.571.813a.679.679,0,0,0,.616-.424.71.71,0,0,0,.042-.237V139.7h.463Z"/><path class="a" d="M477.778,141.054a.814.814,0,0,0,.875.882,1.728,1.728,0,0,0,.709-.131l.082.328a2.078,2.078,0,0,1-.854.162,1.188,1.188,0,0,1-1.258-1.282,1.236,1.236,0,0,1,1.2-1.37,1.073,1.073,0,0,1,1.053,1.194,1.154,1.154,0,0,1-.016.217Zm1.362-.333a.657.657,0,0,0-.642-.747.761.761,0,0,0-.714.747Z"/><path class="a" d="M480.1,141.77a1.274,1.274,0,0,0,.617.181c.339,0,.5-.166.5-.378s-.136-.339-.475-.465c-.463-.166-.681-.416-.68-.721a.788.788,0,0,1,.885-.744,1.246,1.246,0,0,1,.626.156l-.116.336a1,1,0,0,0-.524-.15c-.275,0-.424.157-.424.349,0,.21.15.3.486.433.441.163.669.384.671.763,0,.45-.352.765-.957.765a1.468,1.468,0,0,1-.719-.177Z"/><path class="a" d="M484.806,142.24l-.042-.321h-.014a.953.953,0,0,1-.782.379.727.727,0,0,1-.781-.729c0-.615.549-.953,1.537-.946v-.054a.525.525,0,0,0-.583-.586,1.25,1.25,0,0,0-.666.19l-.105-.308a1.622,1.622,0,0,1,.844-.222c.782,0,.972.53.972,1.039v.95a3.9,3.9,0,0,0,.039.608Zm-.073-1.3c-.5-.01-1.079.079-1.079.571a.407.407,0,0,0,.434.442.639.639,0,0,0,.623-.426.474.474,0,0,0,.022-.145Z"/><path class="a" d="M485.937,140.491c0-.3-.007-.555-.021-.791h.408l.017.5h.017a.774.774,0,0,1,.712-.556.517.517,0,0,1,.129.013v.434a.736.736,0,0,0-.158-.013.648.648,0,0,0-.622.591,1.2,1.2,0,0,0-.019.215v1.357h-.463Z"/><path class="a" d="M487.876,141.054a.814.814,0,0,0,.875.882,1.723,1.723,0,0,0,.708-.131l.082.328a2.072,2.072,0,0,1-.853.162,1.188,1.188,0,0,1-1.259-1.282,1.237,1.237,0,0,1,1.2-1.37,1.225,1.225,0,0,1,1.037,1.411Zm1.361-.333a.656.656,0,0,0-.642-.747.761.761,0,0,0-.714.747Z"/><path class="a" d="M491.956,142.24v-1.5l-1.13-2.04h.527l.5.978c.136.269.244.483.354.731h.011c.1-.233.219-.465.357-.733l.514-.976h.522l-1.193,2.033v1.507Z"/><path class="a" d="M495.919,140.946a1.248,1.248,0,0,1-1.271,1.352,1.213,1.213,0,0,1-1.23-1.308,1.245,1.245,0,0,1,1.27-1.347A1.2,1.2,0,0,1,495.919,140.946Zm-2.028.029c0,.557.322.977.776.977s.779-.414.779-.99c0-.43-.218-.973-.771-.973S493.891,140.494,493.891,140.975Z"/><path class="a" d="M498.645,141.545c0,.266.009.494.022.7h-.412l-.024-.415h-.013a.957.957,0,0,1-.847.473c-.4,0-.881-.223-.881-1.113V139.7h.463v1.4c0,.483.152.813.572.813a.677.677,0,0,0,.615-.424.711.711,0,0,0,.042-.237V139.7h.463Z"/><path class="a" d="M499.418,140.491c0-.3-.008-.555-.022-.791h.408l.018.5h.016a.776.776,0,0,1,.713-.556.527.527,0,0,1,.129.013v.434a.736.736,0,0,0-.158-.013.648.648,0,0,0-.623.591,1.207,1.207,0,0,0-.018.215v1.357h-.463Z"/><path class="a" d="M502.226,141.683a1.608,1.608,0,0,0,.822.229c.471,0,.748-.244.748-.6,0-.328-.194-.522-.675-.7-.581-.2-.942-.509-.942-1a1.024,1.024,0,0,1,1.155-.959,1.658,1.658,0,0,1,.787.17l-.129.375a1.372,1.372,0,0,0-.673-.168c-.489,0-.674.289-.674.53,0,.328.217.49.708.679.605.236.91.524.91,1.043,0,.543-.4,1.02-1.248,1.02a1.833,1.833,0,0,1-.911-.231Z"/><path class="a" d="M507.016,141.545c0,.266.009.494.022.7h-.411l-.025-.415h-.013a.957.957,0,0,1-.847.473c-.4,0-.88-.223-.88-1.113V139.7h.462v1.4c0,.483.152.813.572.813a.676.676,0,0,0,.615-.424.685.685,0,0,0,.043-.237V139.7h.462Z"/><path class="a" d="M509.614,142.148a1.773,1.773,0,0,1-.735.147A1.213,1.213,0,0,1,507.6,141a1.3,1.3,0,0,1,1.374-1.354,1.5,1.5,0,0,1,.646.135l-.1.355a1.127,1.127,0,0,0-.544-.123.885.885,0,0,0-.9.962.875.875,0,0,0,.891.951,1.353,1.353,0,0,0,.57-.123Z"/><path class="a" d="M511.949,142.148a1.767,1.767,0,0,1-.734.147,1.214,1.214,0,0,1-1.276-1.3,1.3,1.3,0,0,1,1.374-1.354,1.5,1.5,0,0,1,.646.135l-.1.355a1.127,1.127,0,0,0-.544-.123.884.884,0,0,0-.9.962.875.875,0,0,0,.891.951,1.348,1.348,0,0,0,.569-.123Z"/><path class="a" d="M512.721,141.054a.814.814,0,0,0,.875.882,1.728,1.728,0,0,0,.709-.131l.081.328a2.072,2.072,0,0,1-.853.162,1.188,1.188,0,0,1-1.259-1.282,1.237,1.237,0,0,1,1.2-1.37,1.225,1.225,0,0,1,1.036,1.411Zm1.361-.333a.656.656,0,0,0-.641-.747.762.762,0,0,0-.715.747Z"/><path class="a" d="M515.045,141.77a1.273,1.273,0,0,0,.616.181c.34,0,.5-.166.5-.378s-.135-.339-.475-.465c-.462-.166-.681-.416-.679-.721a.787.787,0,0,1,.884-.744,1.253,1.253,0,0,1,.627.156l-.116.336a1,1,0,0,0-.525-.15c-.274,0-.423.157-.423.349,0,.21.15.3.485.433.441.163.67.384.671.763,0,.45-.352.765-.956.765a1.468,1.468,0,0,1-.719-.177Z"/><path class="a" d="M517.141,141.77a1.274,1.274,0,0,0,.617.181c.339,0,.5-.166.5-.378s-.136-.339-.475-.465c-.463-.166-.681-.416-.68-.721a.787.787,0,0,1,.884-.744,1.247,1.247,0,0,1,.627.156l-.116.336a1,1,0,0,0-.524-.15c-.275,0-.424.157-.424.349,0,.21.15.3.486.433.441.163.669.384.671.763,0,.45-.352.765-.957.765a1.468,1.468,0,0,1-.719-.177Z"/><path class="a" d="M519.213,141.973a.308.308,0,0,1,.313-.328.327.327,0,1,1-.313.328Zm.13-.75-.075-2.523h.51l-.075,2.523Z"/></g><g transform="translate(-436.004 -120.599)"><path class="b" d="M436,130.8a9.664,9.664,0,0,0,13.885,8.143,8.34,8.34,0,0,1-8.955-3.947l-1.452-2.513c-.48-.83-1.447-2.263-2.593-2.086a2.059,2.059,0,0,0-.885.4"/><path class="b" d="M436.085,128.9v.006a3.314,3.314,0,0,1,.553-.138c1.97-.3,3.39,1.363,4.273,2.892l1.453,2.512a6.673,6.673,0,0,0,8.416,2.756,7.091,7.091,0,0,0,2.34-1.691,9.588,9.588,0,0,0,1.98-3.322,8.848,8.848,0,0,0-.506-5.307,6.914,6.914,0,0,1-.484,1.334,7.514,7.514,0,0,1-4.693,3.92,7.247,7.247,0,0,1-6.576-1.458l-1.254-1a4.637,4.637,0,0,0-5.5-.5"/><path class="b" d="M436.616,126.83l-.01.026a6.359,6.359,0,0,1,6.008,1.254l1.255,1a5.606,5.606,0,0,0,5.1,1.159,5.854,5.854,0,0,0,2.359-1.322,5.429,5.429,0,0,0,1.8-4.174,2.883,2.883,0,0,0-1.3-1.947,10.8,10.8,0,0,0-1.682-1.118,5.26,5.26,0,0,1-1.811,3.625,4.965,4.965,0,0,1-4.421.966l-1.94-.454a6.406,6.406,0,0,0-5.36.984"/><path class="b" d="M445.649,120.6a9.644,9.644,0,0,0-7.623,3.726,8.245,8.245,0,0,1,4.326-.085l1.94.454c2.612.612,4.291-1.362,4.226-3.662a9.645,9.645,0,0,0-2.869-.433"/></g></svg>