<svg xmlns="http://www.w3.org/2000/svg" width="15" height="15" viewBox="0 0 15 15"><defs><style>.a{fill:#005baa;}.b{fill:#fff;}</style></defs><g transform="translate(-472.213 -71.359)"><circle class="a" cx="7.5" cy="7.5" r="7.5" transform="translate(472.213 71.359)"/></g><path class="b" d="M483.793,81.479a4.76,4.76,0,0,0,0-5.24.037.037,0,0,0-.037-.038h0a4.78,4.78,0,0,0-4.043-2.208,4.833,4.833,0,0,0-4.042,2.171h0a.037.037,0,0,1-.038.037,5.03,5.03,0,0,0-.786,2.658,4.8,4.8,0,0,0,.786,2.62.037.037,0,0,0,.038.038h0a4.779,4.779,0,0,0,4.042,2.208,4.835,4.835,0,0,0,4.043-2.171h0C483.793,81.517,483.793,81.517,483.793,81.479Zm-4.08,1.5c-.524,0-1.085-.974-1.347-2.471a5.613,5.613,0,0,1,2.732,0C480.8,82,480.237,82.977,479.713,82.977ZM475.6,78.859a3.945,3.945,0,0,1,.449-1.872,6.683,6.683,0,0,0,1.46.749,8.444,8.444,0,0,0,0,2.246,6.683,6.683,0,0,0-1.46.749A3.945,3.945,0,0,1,475.6,78.859Zm4.117-4.117c.524,0,1.086.973,1.348,2.47a5.617,5.617,0,0,1-2.733,0C478.628,75.715,479.189,74.742,479.713,74.742Zm-1.5,4.117a7,7,0,0,1,.037-.9,7.227,7.227,0,0,0,2.92,0,10.92,10.92,0,0,1,0,1.8,6.428,6.428,0,0,0-2.92,0A6.991,6.991,0,0,1,478.216,78.859Zm3.668-1.123a6.684,6.684,0,0,0,1.46-.749,4.127,4.127,0,0,1,0,3.744,6.684,6.684,0,0,0-1.46-.749,8.444,8.444,0,0,0,0-2.246Zm1.086-1.385a4.348,4.348,0,0,1-1.161.636A5.337,5.337,0,0,0,481.1,75,3.969,3.969,0,0,1,482.97,76.351ZM478.328,75a5.82,5.82,0,0,0-.711,1.983,4.326,4.326,0,0,1-1.16-.636A3.966,3.966,0,0,1,478.328,75Zm-1.871,6.363a4.326,4.326,0,0,1,1.16-.636,5.367,5.367,0,0,0,.711,1.984A3.974,3.974,0,0,1,476.457,81.367Zm4.641,1.348a6.444,6.444,0,0,0,.711-1.984,4.348,4.348,0,0,1,1.161.636A3.977,3.977,0,0,1,481.1,82.715Z" transform="translate(-472.213 -71.359)"/></svg>